<svg width="32" height="32" fill="none" xmlns="http://www.w3.org/2000/svg"><rect width="32" height="32" rx="16" fill="#005DC9"/><path fill-rule="evenodd" clip-rule="evenodd" d="M15.972 24.38a7.847 7.847 0 10-6.828-3.977L8.125 24.38l4.1-.95c1.113.606 2.39.95 3.747.95zm0-1.207a6.64 6.64 0 10-5.441-2.834l-.595 2.23 2.27-.567a6.609 6.609 0 003.766 1.17z" fill="#fff"/><path fill-rule="evenodd" clip-rule="evenodd" d="M15.972 23.82a7.847 7.847 0 10-6.827-3.977l-1.02 3.977 4.1-.951c1.114.606 2.39.95 3.747.95zm0-1.208a6.64 6.64 0 10-5.441-2.833l-.595 2.23 2.27-.568a6.609 6.609 0 003.766 1.171z" fill="#fff"/><path d="M14.01 12.331c-.186-.375-.473-.341-.762-.341-.516 0-1.322.618-1.322 1.77 0 .944.416 1.978 1.818 3.524 1.353 1.492 3.13 2.263 4.606 2.237 1.475-.026 1.779-1.296 1.779-1.725 0-.19-.118-.285-.2-.31-.502-.242-1.43-.692-1.64-.776-.212-.085-.322.03-.39.092-.192.182-.571.72-.701.84-.13.121-.323.06-.404.015-.297-.12-1.1-.477-1.742-1.098-.792-.769-.839-1.033-.988-1.268-.12-.189-.032-.304.012-.355.17-.197.407-.5.512-.652.106-.151.022-.38-.028-.524-.217-.614-.4-1.13-.55-1.429z" fill="#fff"/></svg>